<svg width="20" height="20" fill="none" xmlns="http://www.w3.org/2000/svg"><path d="M14.44 10v.827c0 .16-.12.28-.28.28h-.827v4.72a.834.834 0 0 1-.84.826.834.834 0 0 1-.84-.826V3.52c2.88 1.587 2.774 6.48 2.774 6.48m-3.894-3.613s0 .106-.04.16l-1.066 1.6v7.693c0 .467-.374.84-.827.84a.845.845 0 0 1-.84-.84V8.133l-1.067-1.6s-.053-.106-.04-.16v-2.76c0-.16.134-.28.28-.28.147 0 .28.134.28.267v1.947c0 .306.254.56.56.56.307 0 .56-.254.56-.56V3.6c0-.16.134-.28.28-.28.147 0 .28.12.28.28v1.947c0 .306.254.56.56.56.307 0 .56-.254.56-.56V3.6c0-.147.134-.267.28-.267.147 0 .28.12.28.28v2.774h-.04ZM0 20h20V0H0v20Z" fill="#1A1A1A"/><path d="M10.28 3.333c-.147 0-.28.12-.28.267v1.947c0 .306-.253.56-.56.56a.563.563 0 0 1-.56-.56V3.6c0-.16-.12-.28-.28-.28-.16 0-.28.12-.28.28v1.947c0 .306-.253.56-.56.56a.563.563 0 0 1-.56-.56V3.6a.27.27 0 0 0-.28-.267c-.16 0-.28.134-.28.28v2.774s0 .106.04.16l1.067 1.6v7.693c0 .467.373.84.826.84.454 0 .84-.373.84-.84V8.133l1.067-1.6s.053-.106.04-.16v-2.76c0-.16-.12-.28-.28-.28M11.667 3.52v12.32c0 .453.373.827.84.827a.822.822 0 0 0 .826-.827v-4.72h.827c.16 0 .28-.12.28-.28v-.827s.107-4.893-2.773-6.48" fill="#fff"/></svg>