<svg width="20" height="20" fill="none" xmlns="http://www.w3.org/2000/svg"><path fill="#fff" d="M0 0h20v20H0z"/><path d="M20.2-.213H-.213V20.2H20.2V-.213Z" fill="#1A1A1A"/><path d="M10.88 6.893c-.293.254-.613.4-.933.4-.547 0-1.04-.413-1.374-1.12h2.894a3.24 3.24 0 0 1-.574.72h-.013Zm5.72 2.774-3.04-3.92a.28.28 0 0 0-.24-.134h-3v-.32c.493-.12.867-.573.867-1.106 0-.627-.507-1.134-1.134-1.134-.626 0-1.146.507-1.146 1.134 0 .16.12.28.28.28.16 0 .28-.12.28-.28 0-.32.266-.587.586-.587.32 0 .587.267.587.587 0 .32-.267.586-.587.586-.16 0-.28.12-.28.28v.56h-3a.277.277 0 0 0-.226.12l-3.04 3.934s-.067.133-.054.2c0 .066.054.133.107.186l1.56 1.2c.12.094.293.067.387-.053l1-1.28v6.733c0 .16.12.28.28.28h6.56c.146 0 .28-.12.28-.28v-6.72l1 1.28c.093.12.266.147.386.054l1.56-1.2s.094-.107.107-.187c0-.08 0-.147-.053-.2l-.027-.013Z" fill="#fff"/></svg>