<svg width="1320" height="282" viewBox="0 0 1320 282" fill="none" xmlns="http://www.w3.org/2000/svg">
<path d="M0 275.199H42.142V157.892H103.305V119.091H42.142V39.7944H128.911V0.690271H0V275.199ZM144.453 139.384C144.052 155.715 146.542 172.152 151.823 188.977C157.103 205.706 165.473 220.758 176.729 234.316C187.984 247.981 202.43 259.166 219.966 267.876C237.598 276.585 258.618 281.142 283.224 281.535C304.64 281.142 324.367 276.984 341.902 269.262C359.534 261.54 374.573 251.146 387.229 237.88C399.88 224.518 409.74 209.174 416.416 191.357C423.091 173.533 426.282 154.727 425.881 134.434C425.582 113.844 421.696 95.3303 414.722 78.8985C407.651 62.5621 397.79 48.5041 385.535 37.0221C373.178 25.54 358.438 16.4318 341.603 10.0959C324.666 3.86103 306.035 0.690271 285.715 0.398449C269.179 0.398449 254.032 2.47487 240.687 6.63333C227.336 10.7918 215.38 16.7292 204.819 24.1539C194.36 31.4775 185.194 39.7944 177.423 49.301C169.754 58.7011 163.378 68.5052 158.498 78.8985C153.517 89.3929 150.027 99.8816 147.536 110.376C145.147 120.87 144.052 130.573 144.052 140.074L144.453 139.384ZM187.984 140.074C187.984 129.878 189.78 119.091 193.265 107.211C196.755 95.3303 202.43 84.1457 210.1 74.0498C217.871 63.9482 228.031 55.5359 240.388 48.5041C252.637 41.579 267.784 38.1108 285.715 38.1108C300.06 38.1108 313.506 40.4903 325.361 45.0416C337.316 49.5985 347.578 56.2262 355.948 64.6441C364.413 72.9611 371.089 83.1524 375.669 95.0329C380.255 106.913 382.644 120.18 383.045 135.125C383.44 149.879 381.249 163.437 376.77 176.008C372.184 188.584 365.808 199.769 357.343 209.567C348.973 219.371 338.412 226.992 326.163 232.632C313.806 238.177 300.06 240.949 284.619 241.348C267.084 240.949 252.343 237.88 239.987 231.544C227.731 225.309 217.871 217.194 210.1 207.491C202.43 197.692 196.755 186.8 193.666 175.02C190.475 163.14 189.08 151.265 189.379 139.384L187.984 140.074ZM550.008 170.469L642.758 275.199H702.131L592.845 155.715C605.1 148.391 614.662 138.986 621.636 127.504C628.707 115.921 632.197 101.964 632.197 85.9247C632.197 70.879 629.707 58.0108 624.821 47.1236C619.942 36.3318 612.871 27.2236 603.705 20.2928C594.641 13.2667 583.679 8.01949 570.729 4.84873C557.678 1.77899 543.333 0 527.492 0H469.514V274.509H511.656V171.456H526.097C530.282 171.456 534.466 171.159 538.352 170.766C542.237 170.469 546.123 170.07 550.008 169.773V170.469ZM511.357 133.048V39.1041H528.491C546.823 39.1041 561.264 42.5667 571.43 49.9913C581.589 57.3149 586.87 68.8026 586.87 84.8359C586.87 101.666 581.59 113.844 571.029 121.566C560.468 129.187 546.123 133.048 527.791 133.048H511.357ZM740.799 0.690271H698.657V132.352C698.657 154.031 701.052 173.931 706.332 192.047C711.613 210.263 719.678 226.005 730.238 239.266C740.799 252.532 754.545 262.628 770.985 269.958C787.521 277.281 807.248 280.744 830.059 280.744C849.385 280.744 866.92 277.281 883.157 270.35C899.298 263.324 913.044 253.223 924.599 240.259C936.159 227.391 945.319 211.649 951.696 193.433C957.976 175.318 961.161 155.025 961.161 132.751V1.38615H919.025V133.048C919.025 150.176 916.833 165.519 912.648 179.179C908.464 192.743 902.483 204.32 894.712 213.726C887.042 223.131 877.481 230.455 866.621 235.405C855.761 240.259 843.811 242.734 830.759 242.734C814.918 242.734 801.268 239.563 790.012 233.328C778.756 226.992 769.591 218.58 762.221 208.479C754.845 198.383 749.564 186.502 746.379 173.241C743.29 159.974 741.5 146.315 741.5 132.055L740.799 0.690271ZM1277.86 275.199H1320V0.690271H1277.86L1164.99 220.359L1056.1 0.690271H1010.37V275.199H1052.61V95.3303L1144.96 275.199H1182.62L1277.86 92.1652V275.199Z" fill="#232323"/>
</svg>
