<svg width="1312" height="263" viewBox="0 0 1312 263" fill="none" xmlns="http://www.w3.org/2000/svg">
<path d="M528.154 165.488C524.04 177.292 518.03 187.689 510.124 196.676C502.22 205.663 492.584 212.753 481.213 217.952C469.844 223.151 457.013 225.856 442.72 226.075C426.474 225.856 412.672 222.827 401.301 216.979C389.93 211.131 380.67 203.659 373.525 194.563C366.38 185.467 361.29 175.343 358.257 164.189C355.226 153.035 353.82 141.937 354.036 130.894C354.036 121.58 355.607 111.401 358.745 100.355C361.885 89.312 367.028 79.0786 374.174 69.6586C381.323 60.2386 390.635 52.3333 402.113 45.944C413.59 39.556 427.557 36.3626 444.017 36.3626C457.444 36.3626 469.628 38.5253 480.565 42.856C491.501 47.188 500.868 53.308 508.662 61.212C516.46 69.1186 522.522 78.648 526.857 89.8C531.188 100.952 533.569 113.457 534.002 127.319C534.218 140.964 532.27 153.686 528.154 165.488ZM536.601 34.412C525.122 23.584 511.534 15.2466 495.833 9.39998C480.13 3.55197 462.861 0.518646 444.017 0.302643C428.64 0.302643 414.782 2.3053 402.438 6.31198C390.094 10.3186 379.048 15.732 369.304 22.5533C359.556 29.3773 351.166 37.172 344.126 45.944C337.088 54.7146 331.295 63.972 326.748 73.716C322.199 83.464 318.841 93.264 316.676 103.116C314.511 112.969 313.428 122.231 313.428 130.894C313.212 146.053 315.539 161.375 320.412 176.859C325.285 192.344 332.975 206.367 343.477 218.927C353.981 231.488 367.353 241.776 383.594 249.789C399.838 257.803 419.329 261.915 442.07 262.133C461.993 261.915 480.131 258.179 496.481 250.924C512.833 243.669 526.857 233.924 538.552 221.689C550.244 209.453 559.176 195.105 565.35 178.645C571.524 162.188 574.498 144.536 574.284 125.696C573.849 106.421 570.332 89.0933 563.725 73.716C557.12 58.3427 548.078 45.24 536.601 34.412Z" fill="white"/>
<path d="M659.73 151.662H644.786V38.3093H660.704C703.614 38.3093 732.806 52.8439 732.806 93.8479C732.806 128.773 711.16 151.662 659.73 151.662ZM662.002 1.92528H605.804V257.259H644.786V187.397H666.878C728.958 187.397 774.713 153.296 774.713 94.4973C774.713 33.5079 734.733 1.92528 662.002 1.92528Z" fill="white"/>
<path d="M1272.79 1.92654L1168.51 206.257L1067.81 1.92654H1025.58V257.26H1064.56V89.9612L1150 257.26H1184.76L1272.79 87.0372V257.26H1311.77V1.92654H1272.79Z" fill="white"/>
<path d="M894.684 150.811L821.843 1.57881H777.339L872.575 196.612L845.538 256.912H889.396L1003.11 1.57881H959.582L894.684 150.811Z" fill="white"/>
<path d="M163.716 226.272V35.4493C213.675 42.768 245.508 78.9933 245.508 129.603C245.508 180.405 213.675 218.539 163.716 226.272ZM43.6031 129.603C43.6031 79.3987 74.6516 43.3426 124.101 35.6266V226.212C72.5672 218.34 43.6031 180.272 43.6031 129.603ZM143.909 -0.00268555C55.6584 -0.00268555 0 53.2986 0 129.603C0 205.098 55.6584 261.805 143.909 261.805C234.127 261.805 287.817 207.151 287.817 129.603C287.817 51.2467 234.127 -0.00268555 143.909 -0.00268555Z" fill="white"/>
</svg>
