<svg width="686" height="147" viewBox="0 0 686 147" fill="none" xmlns="http://www.w3.org/2000/svg">
<path d="M0 143.562H21.901V82.3672H53.6872V62.126H21.901V20.7595H66.9945V0.360205H0V143.562ZM75.0717 72.7121C74.8633 81.2313 76.1576 89.8061 78.9019 98.5829C81.6461 107.31 85.9958 115.162 91.8453 122.235C97.6948 129.363 105.203 135.198 114.316 139.742C123.479 144.285 134.403 146.662 147.191 146.867C158.32 146.662 168.572 144.493 177.686 140.465C186.849 136.436 194.665 131.015 201.242 124.094C207.816 117.123 212.941 109.119 216.41 99.8242C219.879 90.5263 221.538 80.716 221.329 70.1299C221.174 59.3887 219.154 49.7307 215.53 41.1588C211.855 32.6366 206.73 25.3031 200.361 19.3133C193.94 13.3235 186.279 8.57203 177.53 5.2668C168.728 2.01428 159.045 0.360205 148.485 0.207972C139.891 0.207972 132.02 1.29117 125.084 3.4605C118.146 5.62982 111.932 8.72719 106.444 12.6004C101.008 16.4208 96.2449 20.7595 92.2063 25.7188C88.2205 30.6224 84.9069 35.7369 82.3711 41.1588C79.7824 46.6333 77.9686 52.1049 76.6742 57.5795C75.4327 63.054 74.8633 68.1158 74.8633 73.0721L75.0717 72.7121ZM97.6948 73.0721C97.6948 67.7528 98.6281 62.126 100.439 55.9283C102.253 49.7307 105.203 43.896 109.188 38.6293C113.227 33.3597 118.507 28.9713 124.929 25.3031C131.295 21.6904 139.166 19.8812 148.485 19.8812C155.94 19.8812 162.928 21.1225 169.089 23.4968C175.302 25.8739 180.635 29.3314 184.985 33.7227C189.384 38.0614 192.854 43.3778 195.234 49.5755C197.617 55.7732 198.859 62.6939 199.067 70.49C199.273 78.1866 198.134 85.2596 195.806 91.8173C193.423 98.378 190.109 104.213 185.71 109.324C181.36 114.439 175.872 118.414 169.506 121.356C163.084 124.249 155.94 125.695 147.916 125.903C138.803 125.695 131.142 124.094 124.72 120.789C118.351 117.536 113.227 113.303 109.188 108.241C105.203 103.129 102.253 97.4471 100.647 91.3021C98.9891 85.1044 98.2641 78.9097 98.4197 72.7121L97.6948 73.0721ZM285.838 88.9278L334.039 143.562H364.895L308.1 81.2313C314.469 77.4108 319.438 72.5042 323.062 66.5144C326.737 60.4719 328.551 53.191 328.551 44.8241C328.551 36.9753 327.257 30.2624 324.718 24.5829C322.182 18.9532 318.507 14.2017 313.744 10.5862C309.033 6.92088 303.336 4.18361 296.606 2.52953C289.823 0.928153 282.369 0.000114441 274.136 0.000114441H244.005V143.202H265.906V89.4431H273.411C275.586 89.4431 277.761 89.2879 279.78 89.083C281.799 88.9278 283.818 88.72 285.838 88.5648V88.9278ZM265.751 69.4068V20.3994H274.655C284.182 20.3994 291.687 22.2057 296.97 26.0789C302.25 29.8993 304.995 35.8921 304.995 44.2561C304.995 53.0359 302.25 59.3887 296.762 63.417C291.273 67.3927 283.818 69.4068 274.291 69.4068H265.751ZM384.991 0.360205H363.09V69.0438C363.09 80.353 364.335 90.7341 367.079 100.184C369.823 109.687 374.014 117.899 379.503 124.817C384.991 131.738 392.135 137.004 400.679 140.828C409.273 144.648 419.525 146.454 431.379 146.454C441.423 146.454 450.536 144.648 458.974 141.033C467.362 137.367 474.506 132.098 480.511 125.335C486.519 118.622 491.28 110.41 494.593 100.907C497.857 91.4573 499.512 80.8712 499.512 69.2517V0.723223H477.614V69.4068C477.614 78.3418 476.475 86.3457 474.301 93.4714C472.126 100.547 469.018 106.587 464.979 111.494C460.993 116.4 456.024 120.221 450.38 122.803C444.736 125.335 438.526 126.626 431.743 126.626C423.51 126.626 416.416 124.972 410.567 121.719C404.717 118.414 399.954 114.026 396.124 108.756C392.291 103.49 389.546 97.2919 387.891 90.3741C386.286 83.4533 385.355 76.3276 385.355 68.8887L384.991 0.360205ZM664.099 143.562H686V0.360205H664.099L605.44 114.954L548.853 0.360205H525.088V143.562H547.039V49.7307L595.032 143.562H614.603L664.099 48.0795V143.562Z" fill="white"/>
</svg>
