<svg width="126" height="27" viewBox="0 0 126 27" fill="none" xmlns="http://www.w3.org/2000/svg">
<g clip-path="url(#clip0_2027_1034)">
<path d="M41.747 25.9152C41.8879 25.5169 42.0461 25.0673 42.2216 24.5637C42.3999 24.0601 42.5753 23.602 42.7537 23.1895H43.5705C43.7144 23.639 43.8783 24.117 44.0624 24.6235C44.2465 25.1299 44.4133 25.5596 44.5629 25.9124H43.9847C43.8611 25.6108 43.7719 25.386 43.7172 25.2352H42.5121C42.4459 25.4372 42.374 25.6648 42.2963 25.9124H41.7412L41.747 25.9152ZM42.6415 24.7942H43.559C43.4152 24.3845 43.2858 23.9975 43.1765 23.6305H43.0701C42.9406 23.9577 42.7997 24.3446 42.6415 24.7942Z" fill="white"/>
<path d="M44.6865 24.5296C44.6865 24.3077 44.7037 24.1199 44.7411 23.9577C44.7785 23.7984 44.8274 23.6646 44.8964 23.5565C44.9655 23.4484 45.0518 23.363 45.1611 23.3004C45.2704 23.2378 45.3912 23.1923 45.5264 23.1639C45.6587 23.1382 45.8169 23.124 45.9981 23.124C46.1793 23.124 46.3375 23.1382 46.4727 23.1639C46.6079 23.1895 46.7287 23.235 46.838 23.3004C46.9473 23.363 47.0364 23.4484 47.1026 23.5565C47.1716 23.6646 47.2234 23.7955 47.2579 23.9577C47.2924 24.1199 47.3125 24.3077 47.3125 24.5296C47.3125 24.8084 47.2867 25.0417 47.232 25.2295C47.1802 25.4173 47.0968 25.5653 46.9818 25.6734C46.8667 25.7815 46.7315 25.8583 46.5762 25.9038C46.418 25.9494 46.2282 25.9721 45.9981 25.9721C45.8169 25.9721 45.6587 25.9579 45.5235 25.9295C45.3883 25.901 45.2675 25.8555 45.1582 25.7872C45.0489 25.7217 44.9626 25.6335 44.8936 25.5226C44.8274 25.4116 44.7756 25.275 44.7382 25.11C44.7037 24.945 44.6836 24.7515 44.6836 24.5296M45.2531 24.1825C45.2445 24.2792 45.2416 24.3987 45.2416 24.5381C45.2416 24.6775 45.2473 24.797 45.256 24.8966C45.2646 24.9934 45.2819 25.0787 45.3049 25.1527C45.3279 25.2267 45.3567 25.2864 45.394 25.3291C45.4286 25.3718 45.4746 25.4088 45.535 25.4344C45.5925 25.4628 45.6587 25.4799 45.7306 25.4884C45.8025 25.497 45.8916 25.5027 45.9981 25.5027C46.1045 25.5027 46.1908 25.497 46.2627 25.4884C46.3346 25.4799 46.4008 25.46 46.4612 25.4344C46.5216 25.4059 46.5676 25.3718 46.6021 25.3291C46.6366 25.2836 46.6654 25.2267 46.6913 25.1527C46.7143 25.0787 46.7315 24.9934 46.7402 24.8966C46.7488 24.7999 46.7545 24.6804 46.7545 24.5381C46.7545 24.3959 46.7488 24.2792 46.7402 24.1825C46.7315 24.0857 46.7143 24.0004 46.6913 23.9292C46.6683 23.8553 46.6366 23.7984 46.605 23.7585C46.5705 23.7158 46.5244 23.6845 46.464 23.6589C46.4036 23.6333 46.3375 23.6163 46.2684 23.6077C46.1994 23.5992 46.1102 23.5963 46.0009 23.5963C45.8916 23.5963 45.8025 23.602 45.7334 23.6077C45.6644 23.6163 45.5983 23.6333 45.5379 23.6589C45.4775 23.6845 45.4286 23.7187 45.3969 23.7585C45.3624 23.8012 45.3336 23.8581 45.3078 23.9292C45.2847 24.0032 45.2675 24.0857 45.2589 24.1825" fill="white"/>
<path d="M48.6731 24.6972L49.7402 23.6074L50.0221 23.8919L49.326 24.6886L50.0221 25.5024L49.7431 25.7954L48.6731 24.6972ZM49.7517 24.6972L50.8188 23.6074L51.1007 23.8919L50.4046 24.6886L51.1007 25.5024L50.8217 25.7954L49.7517 24.6972Z" fill="white"/>
<path d="M51.5552 25.9153V23.1924H53.5398V23.6362H52.0787V24.2736H53.0336C53.2867 24.2736 53.4708 24.3447 53.5887 24.4841C53.7067 24.6235 53.7671 24.8313 53.7671 25.1044C53.7671 25.3918 53.7067 25.5995 53.5859 25.7275C53.4651 25.8527 53.2896 25.9181 53.0595 25.9181H51.5552V25.9153ZM52.0787 25.4771H52.9473C53.1228 25.4771 53.2119 25.3491 53.2119 25.0959C53.2119 24.8284 53.1199 24.6947 52.9329 24.6947H52.0815V25.4771H52.0787Z" fill="white"/>
<path d="M54.2099 25.2926C54.2099 25.1845 54.2214 25.0906 54.2472 25.0137C54.2731 24.9369 54.3076 24.8743 54.3479 24.8288C54.3911 24.7833 54.4457 24.7463 54.5147 24.7178C54.5838 24.6922 54.6557 24.6723 54.7276 24.6638C54.8024 24.6552 54.8887 24.6496 54.9922 24.6496C55.1418 24.6496 55.3086 24.6695 55.4898 24.7036C55.4898 24.6126 55.4841 24.5386 55.4726 24.4874C55.4611 24.4362 55.4352 24.3935 55.3949 24.3593C55.3546 24.3252 55.3057 24.3024 55.2425 24.291C55.1792 24.2797 55.0958 24.274 54.9865 24.274C54.7506 24.274 54.5493 24.3053 54.3824 24.365L54.2904 23.9667C54.555 23.8984 54.8196 23.8643 55.0871 23.8643C55.2453 23.8643 55.3776 23.8756 55.4841 23.9012C55.5905 23.9269 55.6825 23.9667 55.7573 24.0264C55.8321 24.0862 55.8896 24.163 55.9241 24.2626C55.9587 24.3622 55.9759 24.4845 55.9759 24.6325V25.799C55.8494 25.8503 55.6998 25.8901 55.5272 25.9214C55.3546 25.9527 55.1936 25.9669 55.0469 25.9669C54.7276 25.9669 54.5061 25.9185 54.3853 25.8246C54.2645 25.7307 54.2041 25.5515 54.2041 25.2897M54.7103 25.2698C54.7103 25.395 54.7333 25.4775 54.7822 25.5145C54.8311 25.5515 54.9289 25.5686 55.0814 25.5686C55.2166 25.5686 55.3518 25.5487 55.4841 25.506V25.0308C55.3748 25.0081 55.2425 24.9967 55.0843 24.9967C55.0066 24.9967 54.9491 24.9995 54.9059 25.0052C54.8628 25.0109 54.8254 25.0223 54.7937 25.0422C54.7621 25.0621 54.7391 25.0877 54.7247 25.1247C54.7132 25.1617 54.7075 25.2101 54.7075 25.2698" fill="white"/>
<path d="M56.4995 25.9156V23.9268H56.9885V24.6608H57.7795V23.9268H58.2713V25.9156H57.7795V25.0734H56.9885V25.9156H56.4995Z" fill="white"/>
<path d="M58.8179 25.9156V23.9268H59.3068V24.8828C59.5024 24.6694 59.7642 24.3507 60.0863 23.9268H60.6673C60.2819 24.4389 60.0259 24.7405 59.9051 24.8372C59.9511 24.8543 59.9914 24.8742 60.0259 24.8941C60.0604 24.9141 60.1036 24.9482 60.1525 24.9966C60.2014 25.0449 60.2532 25.1047 60.3049 25.1787C60.3567 25.2527 60.4171 25.3494 60.4861 25.4746C60.5552 25.5969 60.63 25.7449 60.7134 25.9156H60.141C60.0576 25.7449 59.9799 25.5998 59.9051 25.4831C59.8303 25.3665 59.7584 25.2754 59.6894 25.21C59.6204 25.1445 59.5571 25.0962 59.4996 25.0649C59.442 25.0336 59.3788 25.0108 59.3068 24.9966V25.9184H58.8179V25.9156Z" fill="white"/>
<path d="M61.7891 25.4487H62.2464C62.4909 24.78 62.6318 24.0289 62.6635 23.1924H64.4842V25.4487H65.0048L64.9214 26.5156H64.4324V25.9153H62.3643V26.5156H61.8753L61.7891 25.4487ZM62.8188 25.4487H63.9636V23.6362H63.1438C63.092 24.3419 62.9827 24.9479 62.8217 25.4487" fill="white"/>
<path d="M65.1516 24.5296C65.1516 24.3077 65.1688 24.1199 65.2062 23.9577C65.2407 23.7984 65.2925 23.6646 65.3615 23.5565C65.4277 23.4484 65.5169 23.363 65.6262 23.3004C65.7355 23.2378 65.8563 23.1923 65.9914 23.1639C66.1238 23.1382 66.282 23.124 66.4632 23.124C66.6444 23.124 66.8026 23.1382 66.9378 23.1639C67.0729 23.1895 67.1937 23.235 67.303 23.3004C67.4123 23.363 67.5015 23.4484 67.5677 23.5565C67.6338 23.6646 67.6885 23.7955 67.723 23.9577C67.7575 24.1199 67.7776 24.3077 67.7776 24.5296C67.7776 24.8084 67.7517 25.0417 67.6971 25.2295C67.6453 25.4173 67.5619 25.5653 67.4469 25.6734C67.3347 25.7815 67.1966 25.8583 67.0413 25.9038C66.8831 25.9494 66.6933 25.9721 66.4632 25.9721C66.282 25.9721 66.1238 25.9579 65.9886 25.9295C65.8534 25.901 65.7326 25.8555 65.6233 25.7872C65.514 25.7217 65.4277 25.6335 65.3587 25.5226C65.2925 25.4116 65.2407 25.275 65.2033 25.11C65.1688 24.945 65.1487 24.7515 65.1487 24.5296M65.7182 24.1825C65.7096 24.2792 65.7067 24.3987 65.7067 24.5381C65.7067 24.6775 65.7124 24.797 65.7211 24.8966C65.7297 24.9934 65.747 25.0787 65.77 25.1527C65.793 25.2267 65.8246 25.2864 65.8591 25.3291C65.8936 25.3718 65.9397 25.4088 66.0001 25.4344C66.0605 25.4628 66.1238 25.4799 66.1957 25.4884C66.2676 25.497 66.3567 25.5027 66.4632 25.5027C66.5696 25.5027 66.6587 25.497 66.7307 25.4884C66.8026 25.4799 66.8687 25.46 66.9291 25.4344C66.9895 25.4059 67.0355 25.3718 67.0701 25.3291C67.1046 25.2836 67.1333 25.2267 67.1592 25.1527C67.1822 25.0787 67.1995 24.9934 67.2081 24.8966C67.2168 24.7999 67.2225 24.6804 67.2225 24.5381C67.2225 24.3959 67.2168 24.2792 67.2081 24.1825C67.1995 24.0857 67.1822 24.0004 67.1564 23.9292C67.1333 23.8553 67.1017 23.7984 67.0701 23.7585C67.0355 23.7158 66.9895 23.6845 66.9291 23.6589C66.8687 23.6333 66.8026 23.6163 66.7335 23.6077C66.6645 23.5992 66.5753 23.5963 66.466 23.5963C66.3567 23.5963 66.2676 23.602 66.1985 23.6077C66.1295 23.6163 66.0634 23.6333 66.0029 23.6589C65.9425 23.6845 65.8965 23.7187 65.862 23.7585C65.8275 23.7984 65.7987 23.8581 65.7728 23.9292C65.7498 24.0032 65.7326 24.0857 65.7239 24.1825" fill="white"/>
<path d="M68.3298 25.9153V23.1924H69.0489C69.3135 23.7301 69.5695 24.3106 69.8226 24.9337C70.0355 24.376 70.2915 23.7927 70.5849 23.1924H71.2579V25.9153H70.7517V23.8866C70.5302 24.3732 70.2742 24.965 69.9837 25.6649H69.5782C69.2301 24.7886 68.9828 24.1968 68.8389 23.8866V25.9153H68.3298Z" fill="white"/>
<path d="M71.8533 25.6306C71.8533 25.5168 71.8734 25.4428 71.9166 25.4086C71.9597 25.3745 72.0402 25.3574 72.1582 25.3574C72.2847 25.3574 72.3681 25.3745 72.4113 25.4058C72.4544 25.4399 72.4746 25.5139 72.4746 25.6306C72.4746 25.7558 72.4515 25.8383 72.4113 25.8781C72.3681 25.9179 72.2847 25.935 72.1582 25.935C72.0402 25.935 71.9597 25.9151 71.9166 25.8753C71.8734 25.8354 71.8533 25.7529 71.8533 25.6306Z" fill="white"/>
<path d="M73.0729 25.9153V23.1924H74.4967C75.003 23.1924 75.2561 23.5025 75.2561 24.1256C75.2561 24.2451 75.2417 24.3561 75.2129 24.4614C75.1842 24.5638 75.141 24.6577 75.0806 24.7402C75.0231 24.8227 74.9426 24.8882 74.8448 24.9365C74.747 24.9849 74.6348 25.0077 74.5082 25.0077H73.5936V25.9153H73.0701H73.0729ZM73.5964 24.5866H74.3615C74.4708 24.5866 74.5543 24.5467 74.6147 24.4699C74.6722 24.3902 74.7038 24.2764 74.7038 24.1228C74.7038 23.7956 74.5945 23.6306 74.3759 23.6306H73.5993V24.5894L73.5964 24.5866Z" fill="white"/>
<path d="M75.5264 24.5466C75.5264 24.3731 75.5436 24.228 75.5781 24.1113C75.6127 23.9947 75.6731 23.8922 75.7594 23.8069C75.8456 23.7215 75.9636 23.6561 76.1103 23.6134C76.2598 23.5707 76.4468 23.5451 76.6711 23.5337V23.1895H77.1946V23.5337C77.4219 23.5451 77.6146 23.5707 77.7641 23.6134C77.9137 23.6561 78.0345 23.7187 78.1237 23.804C78.2128 23.8894 78.2761 23.989 78.3135 24.1056C78.3509 24.2223 78.3682 24.3674 78.3682 24.5438C78.3682 24.7202 78.3509 24.8653 78.3135 24.982C78.2761 25.1015 78.2128 25.2011 78.1237 25.2893C78.0345 25.3746 77.9137 25.4401 77.7641 25.4827C77.6146 25.5254 77.4247 25.5539 77.1946 25.5652V25.9124H76.6711V25.5652C76.4439 25.5539 76.257 25.5254 76.1103 25.4827C75.9636 25.4401 75.8456 25.3746 75.7594 25.2893C75.6731 25.2039 75.6127 25.1015 75.5781 24.9848C75.5436 24.8682 75.5264 24.7202 75.5264 24.5438M76.0499 24.5466C76.0499 24.6348 76.0527 24.7088 76.0642 24.7686C76.0729 24.8255 76.0901 24.8795 76.116 24.9308C76.1419 24.9791 76.1764 25.019 76.2224 25.0474C76.2685 25.0759 76.3289 25.0986 76.4036 25.1128C76.4756 25.1299 76.5676 25.1385 76.674 25.1441V23.9548C76.5388 23.9605 76.4295 23.9719 76.349 23.9947C76.2685 24.0146 76.2052 24.0516 76.162 24.1028C76.1189 24.154 76.0901 24.2109 76.0757 24.2792C76.0614 24.3446 76.0556 24.4357 76.0556 24.5495M77.2004 25.1441C77.3154 25.1441 77.4104 25.1328 77.4851 25.1157C77.5599 25.0986 77.6232 25.0759 77.6721 25.0503C77.721 25.0218 77.7584 24.9848 77.7843 24.9336C77.8102 24.8824 77.8274 24.8283 77.8361 24.7714C77.8447 24.7145 77.8504 24.6405 77.8504 24.5495C77.8504 24.4328 77.8418 24.3418 77.8303 24.2763C77.8159 24.2109 77.7872 24.1512 77.7411 24.0999C77.6951 24.0487 77.629 24.0117 77.5427 23.9918C77.4564 23.9719 77.3442 23.9577 77.2004 23.9548V25.147V25.1441Z" fill="white"/>
<path d="M78.6472 25.5051L79.349 24.7085L78.6472 23.8919L78.9262 23.6045L80.002 24.6971L78.9348 25.7897L78.6501 25.5051H78.6472ZM79.7258 25.5051L80.4277 24.7085L79.7258 23.8919L80.0048 23.6045L81.0806 24.6971L80.0135 25.7897L79.7287 25.5051H79.7258Z" fill="white"/>
<path d="M42.3395 17.1631C42.2676 16.8188 42.2302 16.4091 42.2302 15.9367C42.2302 15.4644 42.2676 15.0576 42.3395 14.7161C42.4143 14.3747 42.5179 14.0873 42.6559 13.8597C42.794 13.6321 42.9781 13.4528 43.2053 13.3163C43.4325 13.1825 43.6885 13.0886 43.9704 13.0317C44.2523 12.9777 44.5859 12.9492 44.9714 12.9492C45.2389 12.9492 45.5294 12.9691 45.84 13.009C46.1506 13.0488 46.421 13.1 46.6511 13.1626L46.4066 14.1272C46.2571 14.0731 46.0615 14.0276 45.8227 13.9934C45.584 13.9593 45.3654 13.9394 45.1641 13.9394C44.9311 13.9394 44.7384 13.9479 44.5888 13.9621C44.4364 13.9792 44.2897 14.0133 44.1458 14.0617C44.002 14.1129 43.8899 14.1812 43.8064 14.2723C43.723 14.3605 43.6482 14.48 43.585 14.6308C43.5217 14.7787 43.4757 14.9608 43.4498 15.1742C43.4239 15.3876 43.4124 15.6437 43.4124 15.9396C43.4124 16.2355 43.4239 16.4944 43.4498 16.7107C43.4757 16.9269 43.5217 17.1118 43.585 17.2626C43.6482 17.4163 43.723 17.5386 43.8093 17.6354C43.8927 17.7293 44.0078 17.8061 44.1487 17.8601C44.2897 17.9142 44.4364 17.9512 44.5946 17.9711C44.7499 17.991 44.9426 17.9996 45.1698 17.9996C45.3712 17.9996 45.5926 17.9825 45.8314 17.9483C46.0701 17.9142 46.2628 17.8715 46.4124 17.8175L46.6569 18.7848C46.4296 18.8474 46.1621 18.8958 45.8486 18.9356C45.5351 18.9755 45.2475 18.9926 44.9742 18.9926C44.5917 18.9926 44.258 18.9613 43.9733 18.8987C43.6885 18.8361 43.4354 18.7365 43.2082 18.5942C42.9838 18.452 42.7997 18.2642 42.6588 18.028C42.5179 17.7919 42.4114 17.5016 42.3395 17.1574" fill="white"/>
<path d="M46.7661 14.0393V13.0918H51.8371V14.0393H49.8582V18.8791H48.7479V14.0393H46.7661Z" fill="white"/>
<path d="M52.5993 18.8791V13.0918H55.6252C56.7009 13.0918 57.2388 13.7519 57.2388 15.0749C57.2388 15.331 57.2072 15.5672 57.1439 15.7863C57.0806 16.0053 56.9886 16.2045 56.8649 16.3809C56.7412 16.5573 56.5744 16.6967 56.3644 16.7992C56.1573 16.9016 55.9186 16.9528 55.6511 16.9528H53.7067V18.8791H52.5964H52.5993ZM53.7096 16.0566H55.3376C55.5705 16.0566 55.7489 15.974 55.8726 15.8062C55.9962 15.6412 56.0595 15.3936 56.0595 15.0664C56.0595 14.3693 55.8265 14.0194 55.3635 14.0194H53.7124V16.0537L53.7096 16.0566Z" fill="white"/>
<path d="M57.9578 15.9341C57.9578 15.4674 57.9952 15.0606 58.0728 14.722C58.1505 14.3806 58.2598 14.096 58.4007 13.8713C58.5417 13.6436 58.7315 13.4615 58.9616 13.3278C59.1946 13.1912 59.4534 13.0973 59.7353 13.0404C60.0201 12.9835 60.3537 12.9551 60.7392 12.9551C61.1246 12.9551 61.4582 12.9835 61.7459 13.0404C62.0306 13.0973 62.2895 13.1941 62.5225 13.3278C62.7555 13.4615 62.9424 13.6436 63.0862 13.8713C63.2301 14.0989 63.3394 14.3834 63.4141 14.722C63.4889 15.0634 63.5263 15.4674 63.5263 15.9341C63.5263 16.5259 63.4688 17.021 63.3566 17.4193C63.2444 17.8176 63.069 18.1335 62.8274 18.3639C62.5858 18.5944 62.2981 18.7594 61.9674 18.8533C61.6337 18.95 61.2253 18.9956 60.7392 18.9956C60.3537 18.9956 60.0172 18.9671 59.7296 18.9074C59.4419 18.8476 59.1831 18.748 58.9558 18.6086C58.7257 18.4692 58.5388 18.2814 58.3978 18.0453C58.254 17.8091 58.1447 17.5189 58.0699 17.1689C57.9952 16.8218 57.9578 16.4092 57.9578 15.9341ZM59.1658 15.1943C59.1486 15.3992 59.1399 15.6524 59.1399 15.9511C59.1399 16.2499 59.1486 16.5031 59.1687 16.7108C59.1888 16.9157 59.2233 17.0978 59.2722 17.2571C59.3211 17.4136 59.3844 17.5388 59.4592 17.6327C59.534 17.7266 59.6318 17.8006 59.7583 17.8603C59.8849 17.9172 60.023 17.957 60.1754 17.977C60.3279 17.9969 60.5177 18.0083 60.742 18.0083C60.9664 18.0083 61.1562 17.9969 61.3087 17.977C61.4611 17.957 61.6021 17.9172 61.7286 17.8603C61.8552 17.8034 61.9558 17.7266 62.0306 17.6327C62.1054 17.5388 62.1658 17.4136 62.2176 17.2571C62.2665 17.1006 62.3039 16.9185 62.3211 16.7108C62.3413 16.506 62.3499 16.2527 62.3499 15.9511C62.3499 15.6495 62.3413 15.3992 62.3211 15.1943C62.301 14.9894 62.2665 14.8102 62.2147 14.6537C62.1629 14.4972 62.0997 14.3777 62.0278 14.2895C61.9558 14.2013 61.8552 14.1302 61.7257 14.0761C61.5963 14.0221 61.4582 13.9879 61.3087 13.968C61.1591 13.9509 60.9693 13.9424 60.742 13.9424C60.5148 13.9424 60.3221 13.9509 60.1754 13.968C60.0258 13.9851 59.8878 14.0221 59.7583 14.0761C59.6289 14.1302 59.5282 14.2013 59.4563 14.2895C59.3844 14.3777 59.3211 14.4972 59.2694 14.6537C59.2176 14.8073 59.1831 14.9894 59.1658 15.1943Z" fill="white"/>
<path d="M64.7085 18.8791V13.0918H65.7871V17.4593C66.8053 15.8403 67.6682 14.3835 68.3787 13.0918H69.7104V18.8791H68.6318V14.6937C67.7862 16.2387 66.9607 17.6328 66.1524 18.8791H64.7085Z" fill="white"/>
<path d="M70.4841 14.0393V13.0918H75.5551V14.0393H73.5762V18.8791H72.4659V14.0393H70.4841Z" fill="white"/>
<path d="M76.3174 18.8791V13.0947H80.5686V14.0394H77.4305V15.3681H79.6683V16.3127H77.4305V17.9345H80.5686V18.8791H76.3174Z" fill="white"/>
<path d="M81.0403 18.8791C81.7536 16.728 82.1477 14.799 82.2253 13.0918H86.14V18.8791H85.0614V14.0364H83.2407C83.1803 14.8018 83.0623 15.607 82.884 16.4492C82.7057 17.2914 82.4813 18.1023 82.2081 18.8791H81.0403Z" fill="white"/>
<path d="M87.6271 18.8791V13.0918H88.7374V15.1347H90.7623C91.0385 15.1347 91.2801 15.1831 91.4843 15.277C91.6885 15.3709 91.8525 15.5074 91.9704 15.681C92.0883 15.8545 92.1775 16.0537 92.235 16.2728C92.2925 16.4947 92.3213 16.7394 92.3213 17.0126C92.3213 17.6129 92.1976 18.0738 91.9502 18.3954C91.7029 18.7169 91.3232 18.8762 90.8112 18.8762H87.6243L87.6271 18.8791ZM88.7374 17.9515H90.5178C90.7364 17.9515 90.8946 17.8747 90.9953 17.7182C91.096 17.5645 91.1449 17.3284 91.1449 17.0126C91.1449 16.3809 90.9263 16.0651 90.4919 16.0651H88.7374V17.9515Z" fill="white"/>
<path d="M93.2099 17.1631C93.138 16.8188 93.1006 16.4091 93.1006 15.9367C93.1006 15.4644 93.138 15.0576 93.2099 14.7161C93.2847 14.3747 93.3882 14.0873 93.5263 13.8597C93.6643 13.6321 93.8484 13.4528 94.0757 13.3163C94.3029 13.1825 94.5589 13.0886 94.8408 13.0317C95.1226 12.9777 95.4563 12.9492 95.8417 12.9492C96.1092 12.9492 96.3997 12.9691 96.7104 13.009C97.021 13.0488 97.2914 13.1 97.5215 13.1626L97.277 14.1272C97.1274 14.0731 96.9318 14.0276 96.6931 13.9934C96.4544 13.9593 96.2358 13.9394 96.0344 13.9394C95.8015 13.9394 95.6087 13.9479 95.4592 13.9621C95.3067 13.9792 95.16 14.0133 95.0162 14.0617C94.8724 14.1129 94.7602 14.1812 94.6768 14.2723C94.5934 14.3605 94.5186 14.48 94.4553 14.6308C94.3921 14.7787 94.346 14.9608 94.3202 15.1742C94.2943 15.3876 94.2828 15.6437 94.2828 15.9396C94.2828 16.2355 94.2943 16.4944 94.3202 16.7107C94.346 16.9269 94.3921 17.1118 94.4553 17.2626C94.5186 17.4163 94.5934 17.5386 94.6797 17.6354C94.7631 17.7293 94.8782 17.8061 95.0191 17.8601C95.16 17.9142 95.3067 17.9512 95.4649 17.9711C95.6202 17.991 95.813 17.9996 96.0402 17.9996C96.2415 17.9996 96.463 17.9825 96.7017 17.9483C96.9405 17.9142 97.1332 17.8715 97.2828 17.8175L97.5272 18.7848C97.3 18.8474 97.0325 18.8958 96.719 18.9356C96.4084 18.9755 96.1178 18.9926 95.8446 18.9926C95.462 18.9926 95.1284 18.9613 94.8436 18.8987C94.5589 18.8361 94.3058 18.7365 94.0785 18.5942C93.8542 18.452 93.6701 18.2642 93.5292 18.028C93.3882 17.7919 93.2818 17.5016 93.2099 17.1574" fill="white"/>
<path d="M97.6367 14.0393V13.0918H102.708V14.0393H100.729V18.8791H99.6185V14.0393H97.6367Z" fill="white"/>
<path d="M103.473 18.8791V13.0918H106.625C106.91 13.0918 107.149 13.1231 107.341 13.1857C107.534 13.2483 107.681 13.3422 107.784 13.4702C107.888 13.5983 107.96 13.7405 108 13.8999C108.04 14.0563 108.063 14.2498 108.063 14.4774C108.063 14.6425 108.055 14.7847 108.037 14.9014C108.02 15.0209 107.988 15.1347 107.937 15.2485C107.885 15.3595 107.816 15.4534 107.727 15.5273C107.638 15.6013 107.52 15.6611 107.37 15.7123C107.221 15.7635 107.045 15.7976 106.838 15.8147C107.105 15.8261 107.33 15.8659 107.511 15.9399C107.689 16.0139 107.827 16.1163 107.922 16.2529C108.014 16.3895 108.081 16.5374 108.118 16.6996C108.155 16.8618 108.173 17.0581 108.173 17.2886C108.173 17.8405 108.043 18.2446 107.787 18.4978C107.528 18.751 107.157 18.8791 106.668 18.8791H103.476H103.473ZM104.583 15.3908H106.378C106.714 15.3908 106.881 15.1603 106.881 14.6965C106.881 14.4604 106.844 14.2897 106.769 14.1815C106.694 14.0734 106.565 14.0194 106.378 14.0194H104.583V15.3908ZM104.583 17.9487H106.427C106.801 17.9487 106.988 17.6784 106.988 17.1378C106.988 16.5716 106.789 16.287 106.392 16.287H104.58V17.9487H104.583Z" fill="white"/>
<path d="M108.636 18.8791C108.932 18.034 109.271 17.078 109.645 16.0082C110.019 14.9384 110.399 13.9681 110.776 13.0918H112.513C112.818 14.0478 113.166 15.0636 113.557 16.1362C113.945 17.2089 114.302 18.1222 114.621 18.8762H113.396C113.134 18.2332 112.944 17.7552 112.829 17.4365H110.272C110.131 17.869 109.979 18.347 109.818 18.8762H108.639L108.636 18.8791ZM110.537 16.4947H112.487C112.176 15.6241 111.906 14.799 111.67 14.0222H111.446C111.173 14.7136 110.868 15.5387 110.537 16.4947Z" fill="white"/>
<path d="M42.0862 7.37265C42.0862 7.00277 42.1236 6.69548 42.1984 6.44794C42.2731 6.20041 42.3997 5.98417 42.5838 5.80491C42.7679 5.62282 43.0152 5.48624 43.3287 5.3952C43.6423 5.30415 44.0392 5.24724 44.5224 5.22448V4.49609H45.6327V5.22448C46.1188 5.25009 46.5215 5.30699 46.8436 5.3952C47.1629 5.48624 47.4189 5.61997 47.6087 5.80207C47.7985 5.98132 47.9309 6.19756 48.0085 6.4451C48.0862 6.69264 48.1236 7.00277 48.1236 7.37265C48.1236 7.74254 48.0833 8.05267 48.0085 8.3059C47.9309 8.55628 47.7985 8.77537 47.6087 8.95746C47.4189 9.13956 47.1629 9.27613 46.8436 9.37003C46.5215 9.46108 46.1188 9.52083 45.6327 9.54359V10.2805H44.5224V9.54359C44.0421 9.51798 43.6451 9.46108 43.3287 9.37003C43.0152 9.27898 42.765 9.13956 42.5838 8.95746C42.3997 8.77537 42.2731 8.55913 42.1984 8.30874C42.1236 8.05836 42.0862 7.74823 42.0862 7.37265ZM43.1964 7.38119C43.1964 7.57182 43.2051 7.72547 43.2252 7.85066C43.2453 7.973 43.2799 8.08681 43.3345 8.19209C43.3863 8.29736 43.4639 8.37988 43.5646 8.43963C43.6624 8.49938 43.7918 8.54775 43.9472 8.58189C44.1025 8.61603 44.2952 8.63879 44.5224 8.64733V6.12074C44.2348 6.13212 44.0018 6.16057 43.8292 6.2061C43.6567 6.25162 43.5243 6.32844 43.4294 6.43656C43.3345 6.54468 43.2741 6.66703 43.2425 6.80929C43.2137 6.95155 43.1964 7.14219 43.1964 7.38403M45.6298 8.65018C45.8714 8.64448 46.0756 8.62457 46.2367 8.59042C46.3978 8.55628 46.533 8.50791 46.6365 8.45101C46.7401 8.3941 46.8177 8.31159 46.8724 8.20347C46.927 8.09535 46.9644 7.98154 46.9817 7.85919C47.0018 7.73685 47.0104 7.58036 47.0104 7.38688C47.0104 7.14219 46.9961 6.94586 46.9644 6.80645C46.9357 6.66418 46.8695 6.53899 46.7717 6.42803C46.6739 6.31706 46.533 6.24024 46.3518 6.19756C46.1705 6.15204 45.9289 6.12643 45.6269 6.11789V8.65302L45.6298 8.65018Z" fill="white"/>
<path d="M49.2283 10.2804V4.49316H50.3069V8.86064C51.3251 7.24169 52.188 5.78491 52.8985 4.49316H54.2302V10.2804H53.1516V6.09505C52.3059 7.64002 51.4804 9.0342 50.6722 10.2804H49.2283Z" fill="white"/>
<path d="M55.7229 10.2804V4.49316H56.836V6.71816H59.3356V4.49316H60.4142V10.2804H59.3356V7.714H56.836V10.2804H55.7229Z" fill="white"/>
<path d="M61.0901 10.2804C61.3863 9.43538 61.7229 8.47938 62.0997 7.40956C62.4765 6.33974 62.8533 5.3695 63.2301 4.49316H64.9674C65.2723 5.44917 65.6203 6.46493 66.0115 7.53759C66.4026 8.61026 66.7564 9.52359 67.0757 10.2776H65.8504C65.5887 9.63455 65.3988 9.15655 65.2838 8.83788H62.7267C62.5829 9.27036 62.4333 9.74836 62.2723 10.2776H61.093L61.0901 10.2804ZM62.9913 7.8961H64.9415C64.6337 7.02545 64.3605 6.20032 64.1275 5.42356H63.9031C63.6299 6.11496 63.3279 6.94009 62.9942 7.8961" fill="white"/>
<path d="M67.625 10.2804V4.49316H68.7353V6.71816H71.2348V4.49316H72.3134V10.2804H71.2348V7.714H68.7353V10.2804H67.625Z" fill="white"/>
<path d="M73.6193 8.56247C73.5474 8.21819 73.51 7.80847 73.51 7.33616C73.51 6.86384 73.5474 6.45697 73.6193 6.11554C73.6941 5.77411 73.7976 5.48674 73.9357 5.25912C74.0738 5.0315 74.2578 4.85224 74.4851 4.71567C74.7123 4.58194 74.9683 4.48805 75.2502 4.43115C75.5321 4.37709 75.8657 4.34863 76.2511 4.34863C76.5186 4.34863 76.8091 4.36855 77.1198 4.40838C77.4304 4.44822 77.7008 4.49943 77.9309 4.56203L77.6864 5.52657C77.5369 5.47251 77.3413 5.42699 77.1025 5.39284C76.8638 5.3587 76.6452 5.33878 76.4438 5.33878C76.2109 5.33878 76.0182 5.34732 75.8686 5.36155C75.7161 5.37862 75.5695 5.41276 75.4256 5.46113C75.2818 5.51234 75.1696 5.58063 75.0862 5.67168C75.0028 5.75988 74.928 5.87938 74.8648 6.03018C74.8015 6.17814 74.7555 6.36023 74.7296 6.57363C74.7037 6.78702 74.6922 7.0431 74.6922 7.339C74.6922 7.63491 74.7037 7.89383 74.7296 8.11007C74.7555 8.32631 74.8015 8.51125 74.8648 8.66205C74.928 8.81569 75.0028 8.93804 75.0891 9.03478C75.1725 9.12867 75.2876 9.20549 75.4285 9.25955C75.5694 9.31361 75.7161 9.3506 75.8743 9.37052C76.0297 9.39044 76.2224 9.39897 76.4496 9.39897C76.6509 9.39897 76.8724 9.3819 77.1112 9.34776C77.3499 9.31361 77.5426 9.27094 77.6922 9.21688L77.9367 10.1843C77.7094 10.2469 77.4419 10.2952 77.1284 10.3351C76.8149 10.3749 76.5273 10.392 76.254 10.392C75.8715 10.392 75.5378 10.3607 75.2531 10.2981C74.9683 10.2355 74.7152 10.1359 74.488 9.99363C74.2636 9.85137 74.0795 9.66358 73.9386 9.42742C73.7976 9.19127 73.6912 8.90105 73.6193 8.55677" fill="white"/>
<path d="M78.7708 10.2804V4.49316H79.8494V8.86064C80.8676 7.24169 81.7305 5.78491 82.4409 4.49316H83.7727V10.2804H82.6941V6.09505C81.8484 7.64002 81.0229 9.0342 80.2147 10.2804H78.7708Z" fill="white"/>
<path d="M85.2656 10.2804V4.49316H88.2915C89.3672 4.49316 89.9051 5.15326 89.9051 6.47631C89.9051 6.73239 89.8734 6.96854 89.8102 7.18763C89.7469 7.40671 89.6548 7.60588 89.5312 7.78229C89.4075 7.95869 89.2406 8.09811 89.0307 8.20054C88.8236 8.30297 88.5848 8.35418 88.3173 8.35418H86.373V10.2804H85.2627H85.2656ZM86.3758 7.45793H88.0038C88.2368 7.45793 88.4151 7.37541 88.5388 7.20754C88.6625 7.04252 88.7258 6.79498 88.7258 6.46778C88.7258 5.77069 88.4928 5.42072 88.0297 5.42072H86.3787V7.45508L86.3758 7.45793Z" fill="white"/>
<path d="M90.6243 7.3325C90.6243 6.86588 90.6617 6.45901 90.7393 6.12042C90.817 5.77899 90.9263 5.49447 91.0672 5.26969C91.2082 5.04207 91.398 4.85997 91.6281 4.72624C91.8611 4.58967 92.1171 4.49578 92.4018 4.43887C92.6866 4.38197 93.0202 4.35352 93.4057 4.35352C93.7911 4.35352 94.1276 4.38197 94.4124 4.43887C94.6971 4.49578 94.956 4.59252 95.189 4.72624C95.422 4.85997 95.6089 5.04207 95.7527 5.26969C95.8966 5.49731 96.0059 5.78184 96.0835 6.12042C96.1583 6.46185 96.1957 6.86588 96.1957 7.3325C96.1957 7.92432 96.141 8.41939 96.0289 8.81773C95.9167 9.21607 95.7384 9.53189 95.4996 9.76236C95.258 9.99282 94.9704 10.1578 94.6396 10.2517C94.306 10.3485 93.8975 10.394 93.4114 10.394C93.026 10.394 92.6895 10.3656 92.4018 10.3058C92.1142 10.2461 91.8582 10.1465 91.6281 10.0071C91.398 9.86763 91.211 9.67984 91.0701 9.44369C90.9263 9.20753 90.817 8.91731 90.7422 8.56735C90.6674 8.22023 90.63 7.80766 90.63 7.3325M91.8381 6.59274C91.8208 6.7976 91.8122 7.05082 91.8122 7.34958C91.8122 7.64833 91.8237 7.90156 91.8409 8.10926C91.8611 8.31412 91.8956 8.49622 91.9474 8.65555C91.9963 8.81204 92.0596 8.93723 92.1343 9.03113C92.2062 9.12502 92.3069 9.199 92.4335 9.25875C92.56 9.31565 92.6981 9.35548 92.8505 9.3754C93.003 9.39532 93.1928 9.4067 93.4172 9.4067C93.6415 9.4067 93.8285 9.39532 93.9838 9.3754C94.1363 9.35548 94.2772 9.31565 94.4037 9.25875C94.5303 9.20184 94.631 9.12502 94.7058 9.03113C94.7777 8.93723 94.8409 8.81204 94.8927 8.65555C94.9445 8.49906 94.979 8.31696 94.9963 8.10926C95.0135 7.9044 95.025 7.65117 95.025 7.34958C95.025 7.04798 95.0135 6.7976 94.9963 6.59274C94.9761 6.38788 94.9416 6.20863 94.8898 6.05214C94.8381 5.89565 94.7748 5.77615 94.7029 5.68794C94.631 5.59974 94.5303 5.52861 94.4009 5.47455C94.2714 5.42049 94.1334 5.38635 93.9838 5.36643C93.8342 5.34936 93.6444 5.34082 93.4172 5.34082C93.1899 5.34082 92.9972 5.34936 92.8477 5.36643C92.6981 5.3835 92.56 5.42049 92.4306 5.47455C92.3012 5.52861 92.2034 5.59974 92.1286 5.68794C92.0567 5.77615 91.9934 5.89565 91.9416 6.05214C91.8898 6.20578 91.8553 6.38788 91.8381 6.59274Z" fill="white"/>
<path d="M97.375 10.2804V4.49316H100.527C100.812 4.49316 101.051 4.52446 101.244 4.58706C101.436 4.64965 101.586 4.74355 101.687 4.87158C101.79 4.99962 101.862 5.14188 101.902 5.30122C101.943 5.45771 101.963 5.65119 101.963 5.87881C101.963 6.04383 101.954 6.18609 101.94 6.30275C101.922 6.42225 101.888 6.53606 101.839 6.64987C101.787 6.76084 101.718 6.85473 101.629 6.92871C101.54 7.00269 101.422 7.06244 101.272 7.11365C101.123 7.16486 100.947 7.19901 100.74 7.21608C101.008 7.22746 101.232 7.26729 101.413 7.34127C101.595 7.41525 101.73 7.51768 101.825 7.65425C101.917 7.79082 101.983 7.93878 102.02 8.10096C102.058 8.26314 102.075 8.45946 102.075 8.68992C102.075 9.24191 101.945 9.64593 101.689 9.89916C101.431 10.1524 101.06 10.2804 100.571 10.2804H97.3779H97.375ZM98.4853 6.79214H100.28C100.617 6.79214 100.783 6.56167 100.783 6.09789C100.783 5.86174 100.746 5.69102 100.671 5.5829C100.596 5.47478 100.464 5.42072 100.28 5.42072H98.4853V6.79214ZM98.4853 9.35003H100.329C100.703 9.35003 100.89 9.07973 100.89 8.53913C100.89 7.97292 100.691 7.68839 100.294 7.68839H98.4824V9.35003H98.4853Z" fill="white"/>
<path d="M102.541 10.2804C102.837 9.43538 103.176 8.47938 103.55 7.40956C103.924 6.33974 104.304 5.3695 104.681 4.49316H106.418C106.723 5.44917 107.071 6.46493 107.462 7.53759C107.85 8.61026 108.207 9.52359 108.526 10.2776H107.301C107.039 9.63455 106.849 9.15655 106.734 8.83788H104.177C104.036 9.27036 103.884 9.74836 103.723 10.2776H102.544L102.541 10.2804ZM104.442 7.8961H106.392C106.084 7.02545 105.811 6.20032 105.575 5.42356H105.351C105.078 6.11496 104.773 6.94009 104.442 7.8961Z" fill="white"/>
<path d="M109.076 10.2804V4.49316H110.186V6.71816H112.685V4.49316H113.764V10.2804H112.685V7.714H110.186V10.2804H109.076Z" fill="white"/>
<path d="M115.251 10.2804V4.49316H116.33V8.86064C117.348 7.24169 118.211 5.78491 118.918 4.49316H120.25V10.2804H119.172V6.09505C118.326 7.64002 117.5 9.0342 116.692 10.2804H115.248H115.251Z" fill="white"/>
<path d="M121.749 10.2804V4.49316H126V5.43779H122.859V6.76937H125.1V7.714H122.859V9.3358H126V10.2804H121.749Z" fill="white"/>
<path d="M33.7277 0.515625H32.3816V23.1554H33.7277V0.515625Z" fill="white"/>
<path d="M8.07958 20.4976H1.34899V17.8344H8.08245V20.4976H8.07958ZM0 16.5V23.1608H1.34612V21.8292H9.4257V16.5H0Z" fill="white"/>
<path d="M21.5465 20.4977H17.5081V17.8345H21.5465V20.4977ZM12.1208 17.8345H16.1591V20.4977H12.1208V17.8345ZM10.7747 16.5029V21.8321H16.162V23.1637H17.5081V21.8321H22.8955V16.5029H10.7747Z" fill="white"/>
<path d="M22.8926 13.8369H0V15.1685H22.8926V13.8369Z" fill="white"/>
<path d="M20.8736 0.515625V0.521316L18.8544 2.51869V0.515625H16.8323L13.467 3.84458V12.5056H14.8132V4.51322L17.5083 1.84721V12.5056H18.8544V4.51322L21.5466 1.84721V12.5056H22.8927V0.515625H20.8736Z" fill="white"/>
<path d="M4.04123 1.84721V11.1711H1.34899V4.51322L4.04123 1.84721ZM0 12.5056H5.38734V0.515625H3.36817L0 3.84458V12.5027V12.5056Z" fill="white"/>
<path d="M8.07952 1.84721H10.7717V11.1711H8.07952V1.84721ZM12.1207 0.515625H6.7334V12.5056H12.1207V0.515625Z" fill="white"/>
</g>
<defs>
<clipPath id="clip0_2027_1034">
<rect width="126" height="26" fill="white" transform="translate(0 0.515625)"/>
</clipPath>
</defs>
</svg>
