<svg width="42" height="42" viewBox="0 0 42 42" fill="none" xmlns="http://www.w3.org/2000/svg">
<path d="M36.75 21C36.75 21.3481 36.6117 21.6819 36.3656 21.9281C36.1194 22.1742 35.7856 22.3125 35.4375 22.3125H6.5625C6.2144 22.3125 5.88056 22.1742 5.63442 21.9281C5.38828 21.6819 5.25 21.3481 5.25 21C5.25 20.6519 5.38828 20.3181 5.63442 20.0719C5.88056 19.8258 6.2144 19.6875 6.5625 19.6875H35.4375C35.7856 19.6875 36.1194 19.8258 36.3656 20.0719C36.6117 20.3181 36.75 20.6519 36.75 21ZM6.5625 11.8125H35.4375C35.7856 11.8125 36.1194 11.6742 36.3656 11.4281C36.6117 11.1819 36.75 10.8481 36.75 10.5C36.75 10.1519 36.6117 9.81806 36.3656 9.57192C36.1194 9.32578 35.7856 9.1875 35.4375 9.1875H6.5625C6.2144 9.1875 5.88056 9.32578 5.63442 9.57192C5.38828 9.81806 5.25 10.1519 5.25 10.5C5.25 10.8481 5.38828 11.1819 5.63442 11.4281C5.88056 11.6742 6.2144 11.8125 6.5625 11.8125ZM35.4375 30.1875H6.5625C6.2144 30.1875 5.88056 30.3258 5.63442 30.5719C5.38828 30.8181 5.25 31.1519 5.25 31.5C5.25 31.8481 5.38828 32.1819 5.63442 32.4281C5.88056 32.6742 6.2144 32.8125 6.5625 32.8125H35.4375C35.7856 32.8125 36.1194 32.6742 36.3656 32.4281C36.6117 32.1819 36.75 31.8481 36.75 31.5C36.75 31.1519 36.6117 30.8181 36.3656 30.5719C36.1194 30.3258 35.7856 30.1875 35.4375 30.1875Z" fill="black"/>
</svg>
