<svg width="590" height="127" viewBox="0 0 590 127" fill="none" xmlns="http://www.w3.org/2000/svg">
<path d="M0 123.673H18.8362V71.0416H46.1741V53.633H18.8362V18.0554H57.6192V0.510871H0V123.673ZM64.566 62.7377C64.3868 70.0647 65.5 77.4396 67.8602 84.9882C70.2204 92.4939 73.9614 99.2469 78.9923 105.33C84.0232 111.461 90.4803 116.479 98.3182 120.387C106.199 124.295 115.594 126.339 126.593 126.516C136.165 126.339 144.982 124.474 152.82 121.009C160.701 117.544 167.423 112.881 173.08 106.929C178.734 100.934 183.142 94.05 186.125 86.0557C189.109 78.059 190.535 69.6216 190.356 60.5169C190.222 51.2788 188.485 42.9723 185.368 35.6C182.208 28.2705 177.8 21.9632 172.322 16.8116C166.799 11.66 160.211 7.57352 152.686 4.73083C145.116 1.93347 136.788 0.510871 127.706 0.379941C120.315 0.379941 113.545 1.31156 107.58 3.1773C101.612 5.04305 96.2685 7.70696 91.5481 11.0381C86.8731 14.3239 82.7762 18.0554 79.3028 22.3207C75.8748 26.5382 73.0249 30.9369 70.8439 35.6C68.6175 40.3084 67.0575 45.0143 65.9443 49.7228C64.8765 54.4312 64.3868 58.7846 64.3868 63.0474L64.566 62.7377ZM84.0232 63.0474C84.0232 58.4724 84.8259 53.633 86.3834 48.3027C87.9434 42.9723 90.4803 37.9542 93.9083 33.4246C97.3817 28.8924 101.923 25.1181 107.446 21.9632C112.921 18.8561 119.691 17.3001 127.706 17.3001C134.118 17.3001 140.128 18.3677 145.426 20.4097C150.77 22.4542 155.357 25.4278 159.098 29.2046C162.882 32.9361 165.865 37.5086 167.913 42.8389C169.962 48.1692 171.03 54.1215 171.209 60.8266C171.386 67.4461 170.407 73.5293 168.405 79.1693C166.355 84.8119 163.505 89.83 159.721 94.2262C155.98 98.625 151.26 102.044 145.785 104.575C140.262 107.062 134.118 108.306 127.216 108.485C119.378 108.306 112.79 106.929 107.267 104.086C101.789 101.289 97.3817 97.648 93.9083 93.2946C90.4803 88.8984 87.9434 84.0112 86.5626 78.7262C85.1364 73.3959 84.5129 68.068 84.6467 62.7377L84.0232 63.0474ZM245.837 76.6842L287.293 123.673H313.831L264.984 70.0647C270.461 66.7789 274.735 62.5589 277.853 57.4073C281.013 52.2104 282.573 45.9485 282.573 38.7524C282.573 32.002 281.46 26.2285 279.276 21.3438C277.095 16.5019 273.935 12.4154 269.838 9.30581C265.786 6.15343 260.887 3.79922 255.099 2.37662C249.265 0.999339 242.853 0.201172 235.773 0.201172H209.859V123.363H228.695V77.1273H235.149C237.02 77.1273 238.89 76.9939 240.627 76.8176C242.364 76.6842 244.1 76.5054 245.837 76.372V76.6842ZM228.561 59.895V17.7457H236.22C244.413 17.7457 250.868 19.2993 255.412 22.6304C259.953 25.9163 262.313 31.0703 262.313 38.2639C262.313 45.815 259.953 51.2788 255.232 54.7434C250.512 58.1627 244.1 59.895 235.907 59.895H228.561ZM331.115 0.510871H312.279V59.5828C312.279 69.3093 313.349 78.2377 315.709 86.3654C318.069 94.5385 321.674 101.601 326.394 107.551C331.115 113.503 337.259 118.033 344.607 121.321C351.998 124.607 360.816 126.16 371.011 126.16C379.649 126.16 387.487 124.607 394.744 121.497C401.959 118.345 408.103 113.813 413.268 107.997C418.435 102.223 422.529 95.1604 425.379 86.9874C428.186 78.8596 429.61 69.755 429.61 59.7616V0.823087H410.776V59.895C410.776 67.5796 409.797 74.4634 407.926 80.5919C406.056 86.6777 403.382 91.872 399.909 96.092C396.481 100.312 392.207 103.598 387.353 105.819C382.499 107.997 377.158 109.107 371.324 109.107C364.243 109.107 358.142 107.684 353.111 104.887C348.081 102.044 343.984 98.27 340.689 93.7378C337.393 89.2081 335.033 83.8778 333.609 77.928C332.228 71.9758 331.428 65.8473 331.428 59.4493L331.115 0.510871ZM571.164 123.673H590V0.510871H571.164L520.714 99.0681L472.045 0.510871H451.606V123.673H470.485V42.9723L511.762 123.673H528.594L571.164 41.5523V123.673Z" fill="black"/>
</svg>
